# xmcd
#
# Track frame offsets:
#	150
#	19787
#	50905
#	70295
#	91062
#	111692
#	128700
#	154322
#	172422
#	197810
#
# Disc length: 2877 seconds
#
# Revision: 1
# Processed by: cddbd v1.5.1PL0 Copyright (c) Steve Scherf et al.
# Submitted via: CDex 1.50Beta5
#
DISCID=970b3b0a
DTITLE=親松敦子 - KILLING WHISPER
DYEAR=1900
DGENRE=Pop
TTITLE0=ステッピン・アウト
TTITLE1=メイビー・アイ・ラブ・ユー
TTITLE2=オール・ガール・プラネット
TTITLE3=トキオ・ダンス
TTITLE4=イフ・ウイ・リメンバー・トゥゲザー
TTITLE5=イッツ・ノット・ホワット・ユーアー・ドゥーイン
TTITLE6=パーク
TTITLE7=ルイスの店で
TTITLE8=アイル・ビー
TTITLE9=ジョージア・オン・マイ・マインド
EXTD=
EXTT0=
EXTT1=
EXTT2=
EXTT3=
EXTT4=
EXTT5=
EXTT6=
EXTT7=
EXTT8=
EXTT9=
PLAYORDER=
